<?xml version="1.0" encoding="utf-8"?>
<!-- Generator: Adobe Illustrator 15.1.0, SVG Export Plug-In . SVG Version: 6.00 Build 0)  -->
<!DOCTYPE svg PUBLIC "-//W3C//DTD SVG 1.1//EN" "http://www.w3.org/Graphics/SVG/1.1/DTD/svg11.dtd">
<svg version="1.1" id="Layer_1" xmlns="http://www.w3.org/2000/svg" xmlns:xlink="http://www.w3.org/1999/xlink" x="0px" y="0px"
	 width="612px" height="792px" viewBox="0 0 612 792" style="enable-background:new 0 0 612 792;" xml:space="preserve">
<style type="text/css">
<![CDATA[
	.st0{fill:#FFFFFF;}
	.st1{fill:#D02027;}
]]>
</style>
<g>
	<path class="st1" d="M232.71,296.737v70.209c0,0.977-0.488,1.463-1.462,1.463h-9.299c-0.976,0-1.463-0.486-1.463-1.463v-29.88
		h-6.896v29.88c0,0.977-0.488,1.463-1.462,1.463h-9.299c-0.976,0-1.462-0.486-1.462-1.463v-70.209c0-0.975,0.486-1.463,1.462-1.463
		h9.299c0.975,0,1.462,0.488,1.462,1.463v28.104h6.896v-28.104c0-0.975,0.487-1.463,1.463-1.463h9.299
		C232.222,295.274,232.71,295.763,232.71,296.737z"/>
	<path class="st1" d="M271.367,355.976c0,1.812-0.349,3.518-1.044,5.12c-0.697,1.603-1.638,2.996-2.821,4.179
		c-1.185,1.185-2.578,2.125-4.179,2.821c-1.603,0.695-3.309,1.045-5.12,1.045h-3.97c-1.812,0-3.518-0.35-5.119-1.045
		c-1.603-0.695-2.996-1.636-4.179-2.821c-1.185-1.184-2.125-2.576-2.821-4.179c-0.697-1.602-1.045-3.308-1.045-5.12v-48.269
		c0-1.811,0.348-3.517,1.045-5.12c0.695-1.602,1.636-2.994,2.821-4.179c1.184-1.184,2.576-2.124,4.179-2.821
		c1.602-0.695,3.307-1.045,5.119-1.045h3.97c1.811,0,3.517,0.35,5.12,1.045c1.602,0.697,2.994,1.637,4.179,2.821
		c1.184,1.185,2.124,2.578,2.821,4.179c0.695,1.603,1.044,3.309,1.044,5.12V355.976z M259.143,308.229
		c0-0.695-0.245-1.288-0.731-1.776c-0.488-0.486-1.081-0.731-1.776-0.731H255.8c-0.697,0-1.29,0.245-1.776,0.731
		c-0.488,0.488-0.731,1.081-0.731,1.776v47.225c0,0.697,0.243,1.29,0.731,1.776c0.487,0.488,1.079,0.731,1.776,0.731h0.836
		c0.695,0,1.288-0.243,1.776-0.731c0.487-0.486,0.731-1.079,0.731-1.776V308.229z"/>
	<path class="st1" d="M312.111,366.946c0.209,0.977-0.141,1.463-1.045,1.463h-9.507c-0.418,0-0.819-0.139-1.201-0.418
		c-0.384-0.277-0.645-0.627-0.783-1.045l-7.627-25.597v27.06l-0.104-1.045c-0.141,0.697-0.593,1.045-1.358,1.045h-9.299
		c-0.976,0-1.463-0.486-1.463-1.463v-70.209c0-0.975,0.487-1.463,1.463-1.463h15.672c1.811,0,3.517,0.349,5.119,1.045
		c1.602,0.697,2.994,1.637,4.18,2.821c1.183,1.185,2.125,2.578,2.82,4.179c0.695,1.603,1.045,3.309,1.045,5.119v17.03
		c0,2.578-0.662,4.894-1.984,6.948c-1.324,2.055-3.066,3.64-5.224,4.754L312.111,366.946z M291.948,327.454h3.343
		c0.695,0,1.288-0.243,1.776-0.731c0.486-0.486,0.731-1.079,0.731-1.776v-15.985c0-0.695-0.245-1.288-0.731-1.776
		c-0.488-0.487-1.081-0.731-1.776-0.731h-3.343V327.454z"/>
	<path class="st1" d="M351.395,366.946c0.209,0.977-0.141,1.463-1.045,1.463h-9.508c-0.418,0-0.818-0.139-1.201-0.418
		c-0.383-0.277-0.645-0.627-0.783-1.045l-7.627-25.597v27.06l-0.104-1.045c-0.141,0.697-0.594,1.045-1.359,1.045h-9.299
		c-0.975,0-1.463-0.486-1.463-1.463v-70.209c0-0.975,0.488-1.463,1.463-1.463h15.672c1.811,0,3.518,0.349,5.119,1.045
		c1.602,0.697,2.994,1.637,4.18,2.821c1.184,1.185,2.125,2.578,2.82,4.179c0.695,1.603,1.045,3.309,1.045,5.119v17.03
		c0,2.578-0.662,4.894-1.984,6.948c-1.324,2.055-3.066,3.64-5.225,4.754L351.395,366.946z M331.23,327.454h3.344
		c0.695,0,1.287-0.243,1.775-0.731c0.486-0.486,0.732-1.079,0.732-1.776v-15.985c0-0.695-0.246-1.288-0.732-1.776
		c-0.488-0.487-1.08-0.731-1.775-0.731h-3.344V327.454z"/>
	<path class="st1" d="M387.543,355.976c0,1.812-0.348,3.518-1.043,5.12c-0.697,1.603-1.639,2.996-2.822,4.179
		c-1.186,1.185-2.578,2.125-4.18,2.821s-3.309,1.045-5.119,1.045h-3.969c-1.812,0-3.52-0.35-5.121-1.045s-2.994-1.636-4.178-2.821
		c-1.186-1.184-2.127-2.576-2.822-4.179c-0.695-1.602-1.043-3.308-1.043-5.12v-48.269c0-1.811,0.348-3.517,1.043-5.12
		c0.695-1.602,1.637-2.994,2.822-4.179c1.184-1.184,2.576-2.124,4.178-2.821c1.602-0.695,3.309-1.045,5.121-1.045h3.969
		c1.811,0,3.518,0.35,5.119,1.045c1.602,0.697,2.994,1.637,4.18,2.821c1.184,1.185,2.125,2.578,2.822,4.179
		c0.695,1.603,1.043,3.309,1.043,5.12V355.976z M375.32,308.229c0-0.695-0.246-1.288-0.732-1.776
		c-0.488-0.486-1.08-0.731-1.775-0.731h-0.836c-0.697,0-1.289,0.245-1.775,0.731c-0.488,0.488-0.732,1.081-0.732,1.776v47.225
		c0,0.697,0.244,1.29,0.732,1.776c0.486,0.488,1.078,0.731,1.775,0.731h0.836c0.695,0,1.287-0.243,1.775-0.731
		c0.486-0.486,0.732-1.079,0.732-1.776V308.229z"/>
	<path class="st1" d="M428.289,366.946c0.209,0.977-0.141,1.463-1.045,1.463h-9.508c-0.418,0-0.82-0.139-1.201-0.418
		c-0.385-0.277-0.645-0.627-0.783-1.045l-7.627-25.597v27.06l-0.105-1.045c-0.141,0.697-0.592,1.045-1.357,1.045h-9.299
		c-0.977,0-1.463-0.486-1.463-1.463v-70.209c0-0.975,0.486-1.463,1.463-1.463h15.672c1.811,0,3.516,0.349,5.119,1.045
		c1.602,0.697,2.994,1.637,4.18,2.821c1.184,1.185,2.123,2.578,2.82,4.179c0.695,1.603,1.045,3.309,1.045,5.119v17.03
		c0,2.578-0.662,4.894-1.986,6.948c-1.322,2.055-3.064,3.64-5.223,4.754L428.289,366.946z M408.125,327.454h3.342
		c0.695,0,1.289-0.243,1.777-0.731c0.486-0.486,0.73-1.079,0.73-1.776v-15.985c0-0.695-0.244-1.288-0.73-1.776
		c-0.488-0.487-1.082-0.731-1.777-0.731h-3.342V327.454z"/>
</g>
<g>
	<path class="st0" d="M221.811,237v7.144h-1.752c-0.045-1.078-0.18-2.021-0.404-2.83c-0.226-0.674-0.596-1.314-1.112-1.921
		c-0.517-0.606-1.225-0.91-2.123-0.91h-2.763v43.063c0,0.63,0.089,1.09,0.27,1.381c0.179,0.293,0.381,0.461,0.606,0.506
		c0.225,0.135,0.494,0.135,0.809,0v1.752h-8.154v-1.752c0.359,0.135,0.651,0.135,0.876,0c0.225-0.044,0.438-0.213,0.641-0.506
		c0.202-0.292,0.303-0.751,0.303-1.381v-43.063h-2.831c-0.943,0-1.663,0.303-2.157,0.91c-0.495,0.606-0.832,1.247-1.011,1.921
		c-0.27,0.809-0.428,1.752-0.472,2.83h-1.82V237H221.811z"/>
	<path class="st0" d="M247.891,283.434v1.752h-8.154v-1.752c0.359,0.135,0.651,0.135,0.876,0c0.179-0.044,0.371-0.213,0.573-0.506
		c0.202-0.292,0.303-0.751,0.303-1.381v-19.679h-10.311v19.679c0,0.63,0.09,1.09,0.27,1.381c0.179,0.293,0.359,0.461,0.54,0.506
		c0.27,0.135,0.561,0.135,0.876,0v1.752h-8.087v-1.752c0.359,0.135,0.628,0.135,0.809,0c0.224-0.044,0.438-0.213,0.64-0.506
		c0.202-0.292,0.303-0.751,0.303-1.381v-40.907c0-0.674-0.101-1.156-0.303-1.449c-0.202-0.292-0.416-0.482-0.64-0.573
		c-0.18-0.09-0.45-0.09-0.809,0V237h8.087v1.618c-0.315-0.09-0.606-0.09-0.876,0c-0.18,0.09-0.36,0.281-0.54,0.573
		c-0.18,0.292-0.27,0.775-0.27,1.449v19.611h10.311v-19.611c0-0.674-0.101-1.156-0.303-1.449c-0.202-0.292-0.394-0.482-0.573-0.573
		c-0.225-0.09-0.517-0.09-0.876,0V237h8.154v1.618c-0.36-0.09-0.674-0.09-0.943,0c-0.18,0.09-0.36,0.281-0.539,0.573
		c-0.18,0.292-0.27,0.775-0.27,1.449v40.907c0,0.63,0.089,1.09,0.27,1.381c0.179,0.293,0.359,0.461,0.539,0.506
		C247.217,283.568,247.531,283.568,247.891,283.434z"/>
	<path class="st0" d="M270.872,278.109v7.076h-18.802v-1.752c0.359,0.135,0.628,0.135,0.809,0c0.224-0.044,0.438-0.213,0.64-0.506
		c0.202-0.292,0.303-0.751,0.303-1.381v-40.907c0-0.674-0.101-1.156-0.303-1.449c-0.202-0.292-0.416-0.482-0.64-0.573
		c-0.18-0.09-0.45-0.09-0.809,0V237h18.802v7.076h-1.752c-0.046-1.033-0.181-1.954-0.404-2.763
		c-0.226-0.674-0.597-1.314-1.112-1.921c-0.517-0.606-1.225-0.91-2.123-0.91h-7.009v21.835h4.718c0.583,0,1.033-0.157,1.348-0.472
		c0.314-0.314,0.539-0.674,0.674-1.078c0.179-0.494,0.27-1.055,0.27-1.685h1.55v8.289h-1.55c0-0.628-0.09-1.167-0.27-1.617
		c-0.135-0.449-0.36-0.842-0.674-1.179c-0.315-0.337-0.765-0.506-1.348-0.506h-4.718v21.499h7.009c0.898,0,1.606-0.27,2.123-0.809
		c0.516-0.539,0.887-1.167,1.112-1.887c0.224-0.809,0.358-1.729,0.404-2.763H270.872z"/>
	<path class="st0" d="M296.884,238.685c-0.72,0.09-1.382,0.27-1.988,0.539s-1.146,0.697-1.617,1.28
		c-0.472,0.584-0.843,1.348-1.112,2.292s-0.404,2.112-0.404,3.504c0,1.887-0.012,4.145-0.034,6.773s-0.033,5.335-0.033,8.121
		c0,2.831,0.011,5.571,0.033,8.222c0.022,2.651,0.034,4.919,0.034,6.806c0,2.831,0.482,4.842,1.449,6.032
		c0.965,1.191,2.167,1.786,3.605,1.786c1.167,0,2.224-0.157,3.167-0.472c0.943-0.314,1.752-0.831,2.426-1.55
		c0.675-0.718,1.19-1.673,1.551-2.864c0.358-1.19,0.539-2.662,0.539-4.414v-1.819h1.55v3.437c0,2.921-0.798,5.189-2.393,6.807
		c-1.595,1.618-3.853,2.403-6.772,2.359c-1.394,0-2.797-0.348-4.212-1.044c-1.416-0.696-2.573-1.719-3.471-3.066
		c-0.585-0.853-1.022-1.83-1.314-2.932c-0.293-1.1-0.495-2.448-0.606-4.043c-0.113-1.594-0.169-3.471-0.169-5.627
		c0-2.156,0-4.694,0-7.615c0-3.909,0.022-7.154,0.067-9.738c0.045-2.583,0.225-4.728,0.539-6.436
		c0.18-1.438,0.641-2.707,1.382-3.808c0.741-1.101,1.628-1.988,2.662-2.662c1.661-1.033,3.369-1.55,5.122-1.55
		c0.224,0,0.438,0,0.64,0s0.415,0.023,0.641,0.067l-0.135-0.135c0.27,0.091,0.448,0.135,0.539,0.135
		c1.033,0.226,1.863,0.495,2.493,0.809c0.629,0.314,1.168,0.584,1.617,0.809c0.359,0.135,0.675,0.135,0.944,0
		c0.539-0.314,0.809-0.898,0.809-1.752c0.089,0,0.156,0.012,0.202,0.034c0.044,0.023,0.089,0.034,0.135,0.034h1.28v11.794h-1.482
		c-0.046-0.718-0.113-1.459-0.202-2.224c-0.091-0.628-0.214-1.325-0.371-2.089c-0.158-0.763-0.416-1.504-0.774-2.224
		c-0.091-0.179-0.281-0.494-0.573-0.943c-0.293-0.449-0.697-0.887-1.213-1.314c-0.518-0.426-1.157-0.786-1.921-1.078
		C298.748,238.629,297.872,238.55,296.884,238.685z"/>
	<path class="st0" d="M327.883,278.109v7.076h-18.129v-1.752c0.359,0.135,0.629,0.135,0.809,0c0.225-0.044,0.449-0.213,0.674-0.506
		c0.225-0.292,0.338-0.751,0.338-1.381v-40.907c0-0.674-0.113-1.156-0.338-1.449c-0.225-0.292-0.449-0.482-0.674-0.573
		c-0.18-0.09-0.449-0.09-0.809,0V237h8.154v1.618c-0.359-0.09-0.674-0.09-0.943,0c-0.18,0.09-0.359,0.281-0.539,0.573
		c-0.18,0.292-0.27,0.775-0.27,1.449v42.794h6.336c0.943,0,1.662-0.258,2.156-0.775c0.494-0.516,0.854-1.134,1.078-1.853
		c0.225-0.764,0.359-1.662,0.404-2.696H327.883z"/>
	<path class="st0" d="M338.598,237v1.618c-0.314-0.09-0.584-0.09-0.809,0c-0.225,0.09-0.428,0.281-0.605,0.573
		c-0.18,0.292-0.27,0.775-0.27,1.449c0,0.045,0,0.854,0,2.426c0,1.573,0,3.55,0,5.931c0,2.382,0.01,4.999,0.033,7.851
		c0.021,2.854,0.033,5.538,0.033,8.053c0,2.517,0,4.684,0,6.503c0,1.82,0,2.932,0,3.336c0,3.46,0.371,5.908,1.113,7.346
		c0.74,1.438,1.83,2.157,3.268,2.157h0.068h0.066c1.348,0,2.414-0.718,3.201-2.157c0.785-1.438,1.18-3.886,1.18-7.346v-5.256
		c0-1.079,0-2.224,0-3.437v-25.407c0-0.674-0.078-1.156-0.236-1.449c-0.158-0.292-0.348-0.482-0.572-0.573
		c-0.27-0.09-0.562-0.09-0.877,0V237h8.02v1.618c-0.27-0.09-0.539-0.09-0.809,0c-0.225,0.09-0.416,0.281-0.572,0.573
		c-0.158,0.292-0.236,0.775-0.236,1.449v35.92c0,1.438-0.281,2.729-0.842,3.875c-0.562,1.146-1.293,2.123-2.189,2.931
		c-0.9,0.809-1.889,1.416-2.967,1.82s-2.133,0.606-3.166,0.606c-1.078,0-2.158-0.202-3.236-0.606s-2.055-1.011-2.932-1.82
		c-0.875-0.809-1.572-1.774-2.088-2.897c-0.518-1.123-0.775-2.403-0.775-3.841c0-0.179,0-0.819,0-1.921c0-1.101,0-2.516,0-4.246
		c0-1.729,0-3.65,0-5.762c0-2.111-0.012-4.268-0.033-6.47c-0.023-2.201-0.035-4.357-0.035-6.469c0-2.111,0-3.999,0-5.661
		c0-1.662,0-2.976,0-3.942c0-0.966,0-1.471,0-1.517c0-0.674-0.1-1.156-0.303-1.449c-0.201-0.292-0.416-0.482-0.641-0.573
		c-0.18-0.09-0.449-0.09-0.809,0V237H338.598z"/>
	<path class="st0" d="M375.057,252.231c0,1.482-0.203,2.774-0.607,3.875c-0.404,1.101-0.887,2.021-1.449,2.763
		c-0.562,0.741-1.168,1.303-1.818,1.685c-0.652,0.382-1.248,0.573-1.787,0.573c0.494,0,1.066,0.18,1.719,0.539
		c0.65,0.36,1.27,0.91,1.854,1.651s1.078,1.685,1.482,2.831c0.404,1.146,0.607,2.505,0.607,4.077v5.728
		c0,1.213-0.227,2.371-0.674,3.471c-0.451,1.102-1.035,2.079-1.752,2.932c-0.721,0.854-1.506,1.54-2.359,2.056
		c-0.854,0.517-1.686,0.775-2.494,0.775h-6.402c-1.707,0-3.57-0.022-5.594-0.067v-1.685c0.314,0.135,0.584,0.135,0.809,0
		c0.225-0.09,0.428-0.28,0.607-0.573c0.18-0.292,0.27-0.751,0.27-1.381v-40.705c0-0.628-0.09-1.088-0.27-1.381
		c-0.18-0.292-0.383-0.482-0.607-0.573c-0.225-0.089-0.494-0.089-0.809,0v-1.685h10.379c1.572,0,2.92,0.248,4.043,0.742
		c1.123,0.495,2.045,1.157,2.764,1.988c0.719,0.832,1.246,1.764,1.584,2.797c0.336,1.034,0.506,2.089,0.506,3.167V252.231z
		 M362.117,238.685v21.633h3.303c0.986,0,1.908-0.213,2.762-0.64c0.854-0.427,1.527-1.269,2.021-2.527
		c0.09-0.224,0.146-0.449,0.17-0.674c0.021-0.224,0.078-0.449,0.168-0.674c0-0.135,0.021-0.247,0.066-0.337
		c0.09-0.494,0.158-1.011,0.203-1.55s0.066-1.146,0.066-1.819v-7.616c0-1.167-0.191-2.145-0.572-2.931
		c-0.383-0.786-0.82-1.404-1.314-1.854c-0.449-0.314-0.943-0.539-1.482-0.674s-1.123-0.247-1.752-0.337H362.117z M362.117,283.568
		h2.83c1.213,0,2.369-0.359,3.471-1.079c1.1-0.718,1.83-1.931,2.189-3.639c0.09-0.404,0.158-0.819,0.203-1.247
		c0.045-0.427,0.066-0.887,0.066-1.382v-6.065c0-0.898-0.066-1.729-0.201-2.494c0-0.089-0.023-0.157-0.068-0.202v-0.135
		c-0.045-0.224-0.09-0.46-0.135-0.708c-0.045-0.247-0.111-0.482-0.201-0.708c-0.494-1.348-1.191-2.336-2.09-2.965
		c-0.898-0.629-1.818-0.944-2.762-0.944h-3.303V283.568z"/>
	<path class="st0" d="M410.504,261.194c0,2.921,0,5.459,0,7.615c0,2.157-0.057,4.033-0.168,5.627
		c-0.113,1.595-0.316,2.943-0.607,4.043c-0.293,1.102-0.73,2.079-1.314,2.932c-0.898,1.348-2.045,2.37-3.438,3.066
		c-1.393,0.697-2.807,1.044-4.244,1.044c-1.395,0-2.797-0.348-4.213-1.044c-1.416-0.696-2.572-1.719-3.471-3.066
		c-0.584-0.853-1.021-1.83-1.314-2.932c-0.293-1.1-0.494-2.448-0.605-4.043c-0.113-1.594-0.17-3.471-0.17-5.627
		c0-2.156,0-4.694,0-7.615c0-3.909,0.023-7.154,0.068-9.738c0.045-2.583,0.246-4.728,0.605-6.436c0.18-1.438,0.629-2.707,1.35-3.808
		c0.717-1.101,1.594-1.988,2.627-2.662c1.662-1.033,3.369-1.55,5.123-1.55c0.852,0,1.729,0.135,2.627,0.404
		c0.898,0.27,1.73,0.652,2.494,1.146c1.033,0.674,1.92,1.562,2.662,2.662c0.74,1.101,1.18,2.37,1.314,3.808
		c0.312,1.708,0.506,3.853,0.572,6.436C410.471,254.04,410.504,257.285,410.504,261.194z M405.854,276.222c0-1.887,0-4.155,0-6.806
		c0-2.651,0.021-5.392,0.066-8.222c-0.045-2.785-0.066-5.492-0.066-8.121s0-4.886,0-6.773c0-2.831-0.494-4.807-1.482-5.931
		c-0.988-1.123-2.201-1.685-3.639-1.685c-1.439,0-2.652,0.562-3.641,1.685c-0.988,1.124-1.482,3.1-1.482,5.931v14.894v15.028
		c0,2.831,0.439,4.842,1.314,6.032c0.877,1.191,2.168,1.786,3.875,1.786s2.977-0.595,3.809-1.786
		C405.438,281.064,405.854,279.053,405.854,276.222z"/>
	<path class="st0" d="M433.146,237v7.076h-1.752c-0.045-1.033-0.18-1.954-0.404-2.763c-0.225-0.674-0.584-1.314-1.078-1.921
		s-1.213-0.91-2.156-0.91h-7.549v21.7h2.629c2.336,0,3.662-0.179,3.977-0.539c0.312-0.359,0.539-0.741,0.674-1.146
		c0.18-0.494,0.27-1.078,0.27-1.752h1.549v8.356h-1.549c0-0.674-0.09-1.235-0.27-1.685c-0.135-0.449-0.361-0.853-0.674-1.213
		c-0.314-0.359-1.641-0.539-3.977-0.539h-2.629v19.881c0,0.63,0.09,1.09,0.27,1.381c0.18,0.293,0.359,0.461,0.539,0.506
		c0.27,0.135,0.562,0.135,0.877,0v1.752h-8.154v-1.752c0.359,0.135,0.629,0.135,0.809,0c0.225-0.044,0.449-0.213,0.674-0.506
		c0.225-0.292,0.338-0.751,0.338-1.381v-40.907c0-0.674-0.113-1.156-0.338-1.449c-0.225-0.292-0.449-0.482-0.674-0.573
		c-0.18-0.09-0.449-0.09-0.809,0V237H433.146z"/>
</g>
<path class="st1" d="M208.91,424.127c0,1.261-0.776,2.281-1.738,2.281l0,0c-0.96,0-1.737-1.021-1.737-2.281v-82.625
	c0-1.26,0.777-2.281,1.737-2.281l0,0c0.962,0,1.738,1.021,1.738,2.281V424.127z"/>
<path class="st1" d="M341.791,435.954c0,1.261-0.632,2.281-1.416,2.281l0,0c-0.781,0-1.414-1.021-1.414-2.281V353.33
	c0-1.26,0.633-2.281,1.414-2.281l0,0c0.784,0,1.416,1.021,1.416,2.281V435.954z"/>
<path class="st1" d="M403.008,418.466c0,1.261-0.46,2.281-1.03,2.281l0,0c-0.567,0-1.027-1.021-1.027-2.281v-82.624
	c0-1.26,0.46-2.281,1.027-2.281l0,0c0.57,0,1.03,1.021,1.03,2.281V418.466z"/>
<path class="st1" d="M266.288,400.937c0,1.261-0.672,2.281-1.504,2.281l0,0c-0.831,0-1.504-1.021-1.504-2.281v-82.625
	c0-1.26,0.673-2.281,1.504-2.281l0,0c0.832,0,1.504,1.021,1.504,2.281V400.937z"/>
<path class="st1" d="M223.947,396.736c0,0.78-0.46,1.412-1.03,1.412l0,0c-0.569,0-1.029-0.632-1.029-1.412v-51.16
	c0-0.78,0.46-1.412,1.029-1.412l0,0c0.569,0,1.03,0.632,1.03,1.412V396.736z"/>
<path class="st1" d="M285.915,393.99c0,0.78-0.46,1.413-1.029,1.413l0,0c-0.569,0-1.029-0.632-1.029-1.413v-51.16
	c0-0.78,0.46-1.412,1.029-1.412l0,0c0.569,0,1.029,0.632,1.029,1.412V393.99z"/>
<rect x="199.707" y="218.833" class="st1" width="234.953" height="9.487"/>
</svg>
